<?xml version="1.0" encoding="UTF-8"?>
<svg version="1.1" xmlns="http://www.w3.org/2000/svg" width="512" height="512">
<path d="M0 0 C1.01823853 0.00215515 2.03647705 0.0043103 3.08557129 0.00653076 C17.70747424 0.05622604 32.00633932 0.36188758 46.375 3.3125 C47.89383789 3.61051514 47.89383789 3.61051514 49.44335938 3.91455078 C97.33223881 13.49089201 141.79848903 35.78506667 176.87475586 69.90942383 C178.93859956 71.83959628 181.16756034 73.55032168 183.375 75.3125 C184.47309154 76.46716769 185.5374861 77.65499631 186.5625 78.875 C189.33259955 82.1297174 192.19946722 85.25937713 195.125 88.375 C201.1093165 94.95684281 206.30422091 102.01172445 211.375 109.3125 C212.04184814 110.26672852 212.04184814 110.26672852 212.72216797 111.24023438 C225.77673454 130.10901967 235.95320481 150.62667186 243.375 172.3125 C243.64892578 173.0869043 243.92285156 173.86130859 244.20507812 174.65917969 C253.43500283 200.86994176 256.80341484 227.91222614 256.75 255.5625 C256.74918427 257.15105301 256.74918427 257.15105301 256.74835205 258.771698 C256.58274811 329.00962715 227.79894752 391.24474097 179.375 441.3125 C177.49561188 443.10564469 175.58592766 444.80348147 173.58984375 446.46484375 C171.84354723 447.9216308 170.13502023 449.42369359 168.44140625 450.94140625 C142.74643854 473.86658234 111.2138556 491.15538142 78.375 501.3125 C77.24118896 501.66368896 77.24118896 501.66368896 76.08447266 502.02197266 C67.56724042 504.61240769 58.97040003 506.71437025 50.25 508.5 C49.49976563 508.6549292 48.74953125 508.8098584 47.9765625 508.96948242 C32.3127607 512.02798624 16.98244069 512.71819876 1.0625 512.6875 C0.001521 512.68695618 -1.05945801 512.68641235 -2.15258789 512.68585205 C-18.6391791 512.64703011 -34.47176367 511.87963932 -50.625 508.3125 C-51.64835449 508.09287598 -52.67170898 507.87325195 -53.72607422 507.64697266 C-98.89354281 497.73831979 -139.94827683 476.50387258 -173.765625 444.92578125 C-175.74196714 443.11953413 -177.70890091 441.40114346 -179.77734375 439.7109375 C-182.08579368 437.76664634 -184.0079271 435.92353516 -185.9375 433.625 C-188.49457821 430.61568744 -191.12156708 427.70258138 -193.8125 424.8125 C-223.21842707 392.06725579 -242.23635664 350.92250253 -251.375 308.125 C-251.57383789 307.20017822 -251.77267578 306.27535645 -251.97753906 305.32250977 C-255.26941369 289.11581484 -256.0003085 273.18212105 -255.9375 256.6875 C-255.93534485 255.66959381 -255.9331897 254.65168762 -255.93096924 253.60293579 C-255.88129854 238.99386477 -255.63040191 224.66174147 -252.625 210.3125 C-252.42632324 209.33764648 -252.22764648 208.36279297 -252.02294922 207.35839844 C-241.77138226 158.35053302 -219.43217348 114.34635801 -184.625 78.3125 C-184.02606934 77.69165527 -183.42713867 77.07081055 -182.81005859 76.43115234 C-175.14623497 68.52999741 -167.40501606 60.98483045 -158.625 54.3125 C-158.08472168 53.89581055 -157.54444336 53.47912109 -156.98779297 53.04980469 C-125.1187531 28.55165293 -88.56685217 12.06060062 -49.1875 4 C-48.46860596 3.85264404 -47.74971191 3.70528809 -47.0090332 3.5534668 C-31.36274321 0.57960898 -15.88931915 -0.06049808 0 0 Z " fill="#A62271" transform="translate(255.625,-0.3125)"/>
<path d="M0 0 C4.28883278 3.35903643 8.17662112 7.12760345 12 11 C11.34 12.32 10.68 13.64 10 15 C9.34217529 15.0093457 8.68435059 15.01869141 8.0065918 15.02832031 C-10.31505298 15.35335862 -28.5946791 15.95567526 -45 25 C-45.73089844 25.39832031 -46.46179688 25.79664063 -47.21484375 26.20703125 C-48.82597778 27.10990438 -50.41632112 28.04979267 -52 29 C-50.88625 28.7525 -50.88625 28.7525 -49.75 28.5 C-39.22808451 27.09707794 -27.72262791 27.35019937 -18.3125 32.875 C-15.71282789 35.26388789 -15.19334032 36.51987424 -15 40 C-16.65 40.66 -18.3 41.32 -20 42 C-20 42.66 -20 43.32 -20 44 C-18.80375 44.020625 -17.6075 44.04125 -16.375 44.0625 C-7.08223817 45.09176159 3.89387479 50.90761228 10 58 C21.06008346 72.22562218 28.87117465 88.46817412 27 107 C26 108 26 108 23.8671875 108.4921875 C19.29672022 107.70761137 17.159111 104.45735935 14.125 101.125 C1.9099658 88.36991688 -13.017669 78.04136155 -31 76 C-30.50371094 76.35191406 -30.00742187 76.70382813 -29.49609375 77.06640625 C-21.13787076 83.14078842 -12.78069584 89.96213683 -10.4375 100.5390625 C-10.1602948 102.72205348 -9.93126747 104.8005589 -10 107 C-10.33 107.33 -10.66 107.66 -11 108 C-13.33944736 107.71269945 -15.6739143 107.38063221 -18 107 C-17.61328125 107.57105469 -17.2265625 108.14210938 -16.828125 108.73046875 C-8.52064424 121.66464053 -6.06564794 134.50943175 -9.1875 149.5625 C-12.57116979 162.55142598 -18.62314007 176.01385325 -29 185 C-31.75 185.25 -31.75 185.25 -34 185 C-35.31562183 182.36875633 -35.16080015 180.33538941 -35.2109375 177.390625 C-35.71444228 155.32370957 -37.57546024 134.76244979 -52 117 C-52.96679688 115.75476563 -52.96679688 115.75476563 -53.953125 114.484375 C-60.72565011 106.30717802 -69.43731534 100.53342087 -79 96 C-79.1546875 97.11375 -79.1546875 97.11375 -79.3125 98.25 C-80 101 -80 101 -81.625 102.875 C-83.71338013 106.10249657 -82.76404606 108.31414967 -82 112 C-80.67466612 115.06763891 -80.67466612 115.06763891 -78.9375 118.125 C-67.0110741 140.97020452 -59.79110696 166.59187178 -59.875 192.375 C-59.87113281 193.55578125 -59.86726562 194.7365625 -59.86328125 195.953125 C-59.87044651 202.38752886 -60.13964103 208.62241845 -61 215 C-59.94683594 215.21914063 -58.89367187 215.43828125 -57.80859375 215.6640625 C-39.03207543 219.72361327 -20.19021946 226.21467081 -9 243 C-1.49147658 246.68600241 5.5705348 247.37763065 13.6171875 244.875 C14.89267149 244.422393 16.16609483 243.96394118 17.4375 243.5 C28.55062699 239.49574853 36.2649053 240.21574495 47.0703125 244.828125 C49.5563983 245.82255932 51.55105043 246.40306976 54.1875 246.6875 C57 247 57 247 59 249 C59.79777582 258.41823468 58.84212763 268.19079694 58.25537109 277.61816406 C58.1225995 279.78925317 58.00457993 281.96086856 57.88671875 284.1328125 C57.80297249 285.52088726 57.7183708 286.90891075 57.6328125 288.296875 C57.52283936 290.15844238 57.52283936 290.15844238 57.41064453 292.05761719 C57 295 57 295 55 297 C52.95097345 297.24954766 52.95097345 297.24954766 50.36821651 297.24888897 C49.38601696 297.25348777 48.4038174 297.25808656 47.39185423 297.26282471 C46.30500556 297.25768115 45.21815689 297.25253759 44.09837341 297.24723816 C42.94989192 297.24965257 41.80141042 297.25206699 40.61812645 297.25455457 C37.42067789 297.25923062 34.22338491 297.2548833 31.02594769 297.24679029 C27.58148287 297.24022975 24.13703251 297.24515814 20.69256592 297.24867249 C13.94134655 297.25372208 7.19017605 297.24806347 0.43896275 297.23882218 C-7.41548339 297.22845578 -15.26991887 297.2285079 -23.12437057 297.22899476 C-37.13362393 297.22949576 -51.14285448 297.22032353 -65.15209961 297.20581055 C-78.76082779 297.19171969 -92.3695359 297.18463986 -105.97827148 297.18530273 C-107.23565385 297.18536267 -107.23565385 297.18536267 -108.51843787 297.18542381 C-109.35521223 297.18546417 -110.19198658 297.18550452 -111.05411774 297.1855461 C-126.52652342 297.18623515 -141.99892054 297.18035077 -157.47132345 297.17139288 C-162.95266462 297.16837086 -168.43400423 297.16731265 -173.91534615 297.16686058 C-180.58998307 297.1661799 -187.26460556 297.1617356 -193.93923635 297.15252777 C-197.3479027 297.14789667 -200.75655054 297.14486909 -204.16522026 297.14612198 C-207.85195553 297.14660881 -211.53863019 297.1409953 -215.22535706 297.13371277 C-216.31443645 297.13526137 -217.40351584 297.13680997 -218.52559763 297.1384055 C-219.50518944 297.13518106 -220.48478125 297.13195661 -221.49405766 297.12863445 C-222.77227881 297.12757782 -222.77227881 297.12757782 -224.07632262 297.12649983 C-226 297 -226 297 -227 296 C-227.0987517 294.31744765 -227.12798904 292.63075972 -227.12939453 290.9453125 C-227.13254669 289.86749512 -227.13569885 288.78967773 -227.13894653 287.67919922 C-227.1369223 286.50631348 -227.13489807 285.33342773 -227.1328125 284.125 C-227.13376923 282.9302002 -227.13472595 281.73540039 -227.13571167 280.50439453 C-227.13639371 277.9723302 -227.13453778 275.44026412 -227.13037109 272.90820312 C-227.12502321 269.0168874 -227.13031533 265.12568711 -227.13671875 261.234375 C-227.13605797 258.78124974 -227.13477682 256.32812456 -227.1328125 253.875 C-227.13483673 252.70211426 -227.13686096 251.52922852 -227.13894653 250.32080078 C-227.13579437 249.2429834 -227.13264221 248.16516602 -227.12939453 247.0546875 C-227.12859894 246.10062012 -227.12780334 245.14655273 -227.12698364 244.16357422 C-227 242 -227 242 -226 241 C-220.62254502 240.62168658 -216.75104826 241.58470492 -211.75 243.5 C-202.43041914 246.79480131 -195.87601822 247.37935028 -186.6875 243.5 C-177.74172922 239.73616557 -168.10746718 239.53048869 -159 243 C-158.443125 242.34773437 -157.88625 241.69546875 -157.3125 241.0234375 C-145.36006993 227.33467469 -131.45324759 220.27047547 -114 216 C-107.88933153 191.15408403 -105.94459489 166.44123506 -105.875 140.9375 C-105.87223053 140.26428711 -105.86946106 139.59107422 -105.86660767 138.89746094 C-105.27047791 125.51802672 -105.27047791 125.51802672 -109 113 C-110.4422174 111.56142116 -110.4422174 111.56142116 -112.0625 110.375 C-115 108 -115 108 -116 106 C-116.0703257 104.33468739 -116.08430216 102.66665427 -116.0625 101 C-116.05347656 100.113125 -116.04445313 99.22625 -116.03515625 98.3125 C-116.02355469 97.549375 -116.01195312 96.78625 -116 96 C-116 95.34 -116 94.68 -116 94 C-123.87142357 97.73671512 -131.27629941 101.37654133 -138 107 C-138.5671875 107.4125 -139.134375 107.825 -139.71875 108.25 C-153.88041502 119.06436238 -160.76487101 138.04559013 -163.3125 155.09082031 C-164.17906766 162.21133031 -164.35624075 169.36825255 -164.60546875 176.53125 C-164.66154297 177.954375 -164.66154297 177.954375 -164.71875 179.40625 C-164.74904297 180.26541016 -164.77933594 181.12457031 -164.81054688 182.00976562 C-165 184 -165 184 -166 185 C-168.31640625 185.33203125 -168.31640625 185.33203125 -171 185 C-182.94313807 174.39154788 -190.26114575 155.77321851 -191.23828125 140.203125 C-191.47340604 127.67963598 -188.48911664 118.77086984 -182 108 C-182.969375 108.020625 -183.93875 108.04125 -184.9375 108.0625 C-188 108 -188 108 -189 107 C-190.16047169 98.04778982 -185.69833564 91.89759593 -180.75 84.75 C-176.90159948 80.90159948 -172.5390908 77.97905377 -168 75 C-187.21977882 76.84805566 -203.83796735 90.91921446 -217 104 C-217.55429688 104.76183594 -218.10859375 105.52367187 -218.6796875 106.30859375 C-219.33324219 107.14583984 -219.33324219 107.14583984 -220 108 C-222.625 108.3125 -222.625 108.3125 -225 108 C-226.69384237 106.30615763 -226.25303099 104.26305119 -226.3125 101.9375 C-226.10573719 84.50739553 -219.16323474 67.86160334 -206.828125 55.56640625 C-199.09162874 48.54585647 -189.64055043 43.66100901 -179 44 C-179 43.34 -179 42.68 -179 42 C-180.65 41.34 -182.3 40.68 -184 40 C-183.73242331 36.78907969 -183.25690343 35.28176505 -181.0625 32.875 C-171.57474856 27.06617259 -160.54177333 26.47404864 -149.81640625 28.84375 C-134.42511343 32.73833267 -121.23003897 40.76996103 -110 52 C-109.84144531 50.8140625 -109.68289062 49.628125 -109.51953125 48.40625 C-106.7384406 28.66788981 -102.4078244 10.08568375 -86 -3 C-79.91017483 -6.8428623 -74.31553016 -9.9975723 -67 -9 C-66.20046862 -5.71303767 -65.90341064 -4.28976808 -67 -1 C-66.24976563 -1.47050781 -65.49953125 -1.94101563 -64.7265625 -2.42578125 C-43.82774082 -15.13879243 -20.59773511 -13.72010683 0 0 Z " fill="#FCF8FA" transform="translate(340,113)"/>
<path d="M0 0 C8.36382747 3.74042138 15.46867714 2.30124603 23.7265625 -0.80859375 C32.84228259 -4.22410406 38.91825323 -4.42987154 47.9765625 -0.80859375 C59.13041765 3.30292045 65.95842879 3.00044356 76.86938477 -1.67285156 C85.73375793 -5.39105859 92.23590331 -3.20876758 100.81640625 0.05859375 C109.77982557 3.28726966 116.5438853 2.74713764 125.2890625 -0.80859375 C135.35195906 -4.85562824 141.89021346 -3.7211915 151.81640625 0.05859375 C160.74787577 3.27576116 167.40730377 2.7538189 176.1015625 -0.80859375 C183.59729646 -3.62622595 189.7368377 -5.69903918 197.53515625 -2.70703125 C199.41905597 -1.85139552 201.28419638 -0.95236481 203.12109375 0 C205.97467674 1.46016447 205.97467674 1.46016447 210.6640625 2.19140625 C210.3340625 7.47140625 210.0040625 12.75140625 209.6640625 18.19140625 C200.15865292 15.40315277 200.15865292 15.40315277 197.1640625 14.12109375 C188.55732857 10.92046457 180.37507951 13.57434799 172.36010742 17.05664062 C164.41272825 20.435004 158.92946061 19.26417506 151.2890625 16.19140625 C150.58523438 15.90523438 149.88140625 15.6190625 149.15625 15.32421875 C142.26114622 12.68193445 135.69801048 12.13030873 128.6015625 14.50390625 C127.76882813 14.77460938 126.93609375 15.0453125 126.078125 15.32421875 C123.26022016 16.33647583 120.48665903 17.43428136 117.74609375 18.640625 C111.29801196 20.34640273 106.25850667 18.55284977 100.3515625 16.19140625 C89.2371987 12.09444929 82.40755662 12.34451626 71.54663086 17.05566406 C65.46870706 19.61782922 60.64716564 20.09770776 54.1796875 18.1328125 C53.10203125 17.67777344 52.024375 17.22273438 50.9140625 16.75390625 C40.49693627 12.42166537 33.01973833 11.93977189 22.4765625 16.19140625 C21.81172852 16.47701416 21.14689453 16.76262207 20.46191406 17.05688477 C14.55751618 19.52584995 10.11820373 20.04767983 3.90234375 17.87890625 C2.59201502 17.32045978 1.28346812 16.75781736 -0.0234375 16.19140625 C-10.50586131 12.03990353 -18.16601369 12.03990353 -28.6484375 16.19140625 C-29.63553711 16.61921387 -29.63553711 16.61921387 -30.64257812 17.05566406 C-38.00586451 20.19380887 -43.1424594 19.58598499 -50.34960938 16.703125 C-51.14947266 16.36925781 -51.94933594 16.03539062 -52.7734375 15.69140625 C-53.60037109 15.35753906 -54.42730469 15.02367187 -55.27929688 14.6796875 C-57.30256562 13.86102385 -59.31988912 13.02769299 -61.3359375 12.19140625 C-61.3359375 7.24140625 -61.3359375 2.29140625 -61.3359375 -2.80859375 C-56.86188042 -1.91378233 -53.03069651 -1.13702528 -48.8984375 0.81640625 C-40.96806982 3.87724992 -34.93787923 2.25449212 -27.3359375 -0.80859375 C-16.82247456 -5.00569197 -10.45254804 -4.84016406 0 0 Z " fill="#A1236C" transform="translate(181.3359375,364.80859375)"/>
<path d="M0 0 C11.35356574 4.1995146 18.90918419 3.91645223 30.00610352 -0.86425781 C37.7839742 -4.15290733 43.51205185 -3.06172915 51.125 0 C51.82882813 0.28617187 52.53265625 0.57234375 53.2578125 0.8671875 C62.18768066 4.28921727 69.08033599 3.34891151 77.875 0 C86.13385607 -3.11284558 91.9258901 -4.12161193 100.375 -0.5625 C110.71328409 3.74716475 118.5021301 4.16497401 128.8125 0 C129.80310425 -0.42841187 129.80310425 -0.42841187 130.8137207 -0.86547852 C137.0031515 -3.44626037 142.2784468 -4.10688411 148.64453125 -1.6875 C149.95326699 -1.13141924 151.25921608 -0.56874077 152.5625 0 C163.78684171 4.45763755 170.95012736 3.54228783 181.98608398 -0.83789062 C192.52500425 -4.96656569 198.78998252 -2.62078657 208.78515625 1.6875 C210.25275391 2.3371875 210.25275391 2.3371875 211.75 3 C211.75 7.29 211.75 11.58 211.75 16 C122.65 16 33.55 16 -58.25 16 C-58.25 10.06 -58.25 4.12 -58.25 -2 C-54.40657598 -1.2313152 -51.6552501 -0.40755937 -48.125 1.0625 C-38.03465146 4.70362444 -30.59306869 3.2754414 -20.99536133 -0.86474609 C-13.22596265 -4.14539683 -7.59153076 -3.0514385 0 0 Z " fill="#A1226B" transform="translate(178.25,387)"/>
<path d="M0 0 C5.56683514 11.7924458 10.550027 23.41373485 14 36 C14.44279297 37.58361328 14.44279297 37.58361328 14.89453125 39.19921875 C15.66997689 42.12146465 16.35944106 45.04542187 17 48 C17.20625 48.93070312 17.4125 49.86140625 17.625 50.8203125 C18.99333739 58.09910725 19.20583866 65.30313474 19.25 72.6875 C19.25926514 73.64954346 19.26853027 74.61158691 19.27807617 75.6027832 C19.27396729 76.54210693 19.2698584 77.48143066 19.265625 78.44921875 C19.26336914 79.27768311 19.26111328 80.10614746 19.25878906 80.9597168 C18.8846359 85.35531053 17.86516417 89.67417917 17 94 C5.12 94 -6.76 94 -19 94 C-18.566875 91.091875 -18.13375 88.18375 -17.6875 85.1875 C-17.25999298 82.17645641 -16.8445619 79.16402189 -16.43212891 76.15087891 C-16.15305339 74.11599268 -15.86921228 72.08175174 -15.57958984 70.04833984 C-12.46455638 47.77751344 -12.28191955 25.44920738 -12 3 C-9.98177083 2.51171875 -7.96354167 2.0234375 -5.9453125 1.53515625 C-0.3649635 0 -0.3649635 0 0 0 Z " fill="#9F2164" transform="translate(254,233)"/>
<path d="M0 0 C18.881205 -0.75357359 39.76025671 0.86751802 55.109375 13.25 C58.68824987 16.56267757 62.06687814 20.099572 65 24 C65 24.66 65 25.32 65 26 C64.41992188 25.86722656 63.83984375 25.73445313 63.2421875 25.59765625 C58.84229018 24.60295999 54.46105842 23.68631668 50 23 C49.61197228 25.30204048 49.61197228 25.30204048 50 28 C51.98040357 30.43632123 51.98040357 30.43632123 54.625 32.6875 C62.81720848 40.49732817 68.70813274 50.0505205 69.46875 61.578125 C69.50249677 63.13508582 69.51238999 64.69272278 69.5 66.25 C69.49572998 67.07483887 69.49145996 67.89967773 69.48706055 68.74951172 C69.18530874 79.70427517 64.60376084 88.77167896 59 98 C58.67 98 58.34 98 58 98 C57.93530518 97.38705078 57.87061035 96.77410156 57.80395508 96.14257812 C55.38747984 73.95663895 51.17165738 54.3248402 36 37 C35.14535156 36.00419922 35.14535156 36.00419922 34.2734375 34.98828125 C24.69343846 24.61334612 11.74612058 18.55188166 -1 13 C-0.83628906 12.43796875 -0.67257813 11.8759375 -0.50390625 11.296875 C0.02864997 8.86940944 0.09898681 6.73110319 0.0625 4.25 C0.05347656 3.45078125 0.04445312 2.6515625 0.03515625 1.828125 C0.02355469 1.22484375 0.01195312 0.6215625 0 0 Z " fill="#9D236A" transform="translate(255,185)"/>
<path d="M0 0 C0.763125 0.721875 1.52625 1.44375 2.3125 2.1875 C2.3125 2.5175 2.3125 2.8475 2.3125 3.1875 C1.70664062 3.28546875 1.10078125 3.3834375 0.4765625 3.484375 C-4.19814251 4.31863005 -8.34508146 5.36875075 -12.6875 7.3125 C-18.95962575 9.89743518 -24.26994921 10.46191571 -30.71484375 8.05859375 C-31.77832031 7.60613281 -32.84179688 7.15367187 -33.9375 6.6875 C-45.29735099 2.02636536 -54.30092725 3.71441828 -65.44921875 8.0546875 C-72.78993035 10.62260832 -77.88336662 9.66572278 -84.9375 6.6875 C-96.25112781 2.0453315 -105.37228418 3.63469378 -116.46484375 8.07421875 C-120.79501991 9.57009779 -124.15796622 9.57797705 -128.6875 9.1875 C-124.27894345 -1.20074762 -112.48740224 -6.69975414 -102.6875 -10.8125 C-71.87529411 -22.50871101 -26.64027665 -21.46022285 0 0 Z " fill="#A02266" transform="translate(316.6875,350.8125)"/>
<path d="M0 0 C0.06058594 0.74765625 0.12117188 1.4953125 0.18359375 2.265625 C0.26738281 3.25046875 0.35117188 4.2353125 0.4375 5.25 C0.51871094 6.22453125 0.59992188 7.1990625 0.68359375 8.203125 C0.95074584 10.56461753 1.35371968 12.71901065 2 15 C1.02160156 15.49628906 0.04320312 15.99257812 -0.96484375 16.50390625 C-8.56473199 20.41835328 -15.464878 24.4310562 -22 30 C-22.86431641 30.63228516 -22.86431641 30.63228516 -23.74609375 31.27734375 C-37.52377784 41.74583813 -46.30309415 61.28678062 -49 78 C-49.8314087 84.65126956 -50.43903804 91.32125288 -51 98 C-55.71628949 93.694258 -57.6512734 88.84050016 -60 83 C-60.32484375 82.20335937 -60.6496875 81.40671875 -60.984375 80.5859375 C-64.55207304 70.52233643 -64.41149568 59.33133131 -60.265625 49.4921875 C-56.3967388 41.87382517 -51.19674398 33.79782932 -44 29 C-43.74969023 26.41619823 -43.74969023 26.41619823 -44 24 C-49.27315333 24.4452885 -54.01770224 25.08373163 -59 27 C-56.44510353 17.91592366 -47.86698376 11.43058151 -40 7 C-27.4452678 1.12662281 -13.75947121 -0.50034441 0 0 Z " fill="#A72367" transform="translate(219,185)"/>
<path d="M0 0 C1.10085938 -0.01417969 2.20171875 -0.02835938 3.3359375 -0.04296875 C6.73975276 0.19554087 9.44916186 0.97377334 12.625 2.1875 C10.32216746 4.72881358 7.95186207 6.25860295 4.9375 7.875 C4.12925781 8.31199219 3.32101562 8.74898437 2.48828125 9.19921875 C1.87339844 9.52535156 1.25851562 9.85148438 0.625 10.1875 C1.12 12.1675 1.12 12.1675 1.625 14.1875 C2.22860352 14.22190186 2.83220703 14.25630371 3.45410156 14.29174805 C22.04748208 15.43478373 34.38262995 17.93208122 47.40234375 32.125 C53.46511188 39.52990764 57.07527806 48.65898643 57.625 58.1875 C53.66156601 55.60719987 49.95259676 52.88684642 46.25 49.9375 C27.37720033 35.82352436 7.44104189 31.15607888 -15.8840332 32.22167969 C-18.79454434 32.18174324 -21.50738785 31.67771546 -24.375 31.1875 C-26.39119049 31.04840105 -28.41001874 30.9439684 -30.4296875 30.87109375 C-31.53828125 30.82919922 -32.646875 30.78730469 -33.7890625 30.74414062 C-34.93117188 30.70482422 -36.07328125 30.66550781 -37.25 30.625 C-38.4153125 30.58181641 -39.580625 30.53863281 -40.78125 30.49414062 C-43.64572625 30.38848371 -46.51028321 30.28638201 -49.375 30.1875 C-49.375 26.35369503 -48.4749279 25.85483108 -45.8125 23.1875 C-33.29774111 11.18194882 -18.01510414 0.10498312 0 0 Z " fill="#9D246C" transform="translate(300.375,147.8125)"/>
<path d="M0 0 C19.90229969 0.05833859 34.93534823 10.99407001 48.6875 24.4375 C47.40136719 26.890625 47.40136719 26.890625 44.6875 29.4375 C40.90095405 30.24281529 37.12578582 30.17949981 33.265625 30.1875 C32.13284119 30.21295898 31.00005737 30.23841797 29.83294678 30.26464844 C26.20112817 30.34544557 22.5699576 30.39512213 18.9375 30.4375 C-3.19323372 30.54388696 -3.19323372 30.54388696 -24.3125 36.4375 C-25.49779297 36.92331543 -25.49779297 36.92331543 -26.70703125 37.41894531 C-36.66453799 41.84616014 -44.97941986 48.55074885 -53.3125 55.4375 C-54.63826918 56.44750686 -55.96786788 57.45274509 -57.3125 58.4375 C-55.56658848 45.16857247 -50.09590139 31.87011989 -39.3125 23.4375 C-30.16765354 17.16133945 -22.39798702 15.13588634 -11.4375 14.3125 C-10.36757812 14.22613281 -9.29765625 14.13976562 -8.1953125 14.05078125 C-5.56816301 13.83967102 -2.94066789 13.63545597 -0.3125 13.4375 C-0.3125 11.7875 -0.3125 10.1375 -0.3125 8.4375 C-3.9425 6.4575 -7.5725 4.4775 -11.3125 2.4375 C-8.11672896 -0.75827104 -4.3543691 0.00910293 0 0 Z " fill="#A92468" transform="translate(179.3125,148.5625)"/>
<path d="M0 0 C0.7425 0.5775 1.485 1.155 2.25 1.75 C2.25 2.08 2.25 2.41 2.25 2.75 C1.26902344 2.85957031 0.28804688 2.96914062 -0.72265625 3.08203125 C-14.6411373 4.69055136 -27.99855019 6.57653947 -40.75 12.75 C-41.67425781 13.19214844 -42.59851563 13.63429687 -43.55078125 14.08984375 C-52.99628292 18.91279439 -60.86641315 25.27709106 -67.6015625 33.44140625 C-71.21228786 37.32129477 -75.29139318 40.67396844 -79.33300781 44.09472656 C-79.95788086 44.62420898 -80.58275391 45.15369141 -81.2265625 45.69921875 C-81.8340332 46.2101709 -82.44150391 46.72112305 -83.06738281 47.24755859 C-84.98205416 48.90049298 -84.98205416 48.90049298 -87.3359375 51.64453125 C-89.75 53.75 -89.75 53.75 -93.0625 54.0625 C-93.949375 53.959375 -94.83625 53.85625 -95.75 53.75 C-96.33833294 35.90390069 -93.84334279 17.67056755 -81.75 3.75 C-73.7340615 -4.42869867 -73.7340615 -4.42869867 -68.75 -5.25 C-68.9665625 -4.58613281 -69.183125 -3.92226562 -69.40625 -3.23828125 C-69.6846875 -2.35527344 -69.963125 -1.47226563 -70.25 -0.5625 C-70.5284375 0.30761719 -70.806875 1.17773438 -71.09375 2.07421875 C-71.74850805 4.74391677 -71.86831495 7.01396684 -71.75 9.75 C-69.44795952 10.13802772 -69.44795952 10.13802772 -66.75 9.75 C-64.31367877 7.76959643 -64.31367877 7.76959643 -62.0625 5.125 C-44.84539075 -12.93508344 -20.57113792 -13.32503969 0 0 Z " fill="#9F2368" transform="translate(333.75,118.25)"/>
<path d="M0 0 C2.72911923 2.1676258 4.20767787 3.64647112 5.3203125 6.984375 C5.6889983 11.96163326 5.48487558 15.02867115 2.3203125 18.984375 C-1.83565545 21.49213392 -5.94155582 21.98098737 -10.6796875 20.984375 C-13.47506928 18.84015274 -15.10783963 16.12807074 -16.6796875 12.984375 C-17.11933479 9.11547888 -16.80603974 7.22772006 -14.9921875 3.734375 C-11.30766295 -0.64722176 -5.41611254 -3.27485875 0 0 Z " fill="#A12366" transform="translate(242.6796875,180.015625)"/>
<path d="M0 0 C3.625 0.375 3.625 0.375 7 1 C7.92054342 4.01268757 8.27861489 5.42729162 6.875 8.3125 C5 10 5 10 2.4375 10.375 C0 10 0 10 -2 8 C-2.25 5 -2.25 5 -2 2 C-1.34 1.34 -0.68 0.68 0 0 Z " fill="#A22567" transform="translate(233,209)"/>
<path d="M0 0 C1.67542976 0.28604898 3.34385343 0.61781233 5 1 C5.125 3.875 5.125 3.875 5 7 C4.34 7.66 3.68 8.32 3 9 C2.01 9 1.02 9 0 9 C-0.87890625 2.84765625 -0.87890625 2.84765625 -1 1 C-0.67 0.67 -0.34 0.34 0 0 Z " fill="#A12467" transform="translate(248,205)"/>
<path d="M0 0 C-0.875 4.875 -0.875 4.875 -2 6 C-3.99958364 6.04080783 -6.00045254 6.04254356 -8 6 C-8 5.01 -8 4.02 -8 3 C-5.0936485 0.19744677 -4.21174952 0 0 0 Z " fill="#A22768" transform="translate(249,222)"/>
</svg>
